<?xml version="1.0" encoding="UTF-8"?>
<svg version="1.1" xmlns="http://www.w3.org/2000/svg" width="64" height="64">
<path d="M0 0 C1.12347839 0.00607269 1.12347839 0.00607269 2.26965332 0.01226807 C3.03894165 0.01035461 3.80822998 0.00844116 4.60083008 0.00646973 C6.22823412 0.00510799 7.85564902 0.00880368 9.48303223 0.01715088 C11.97855963 0.02785086 14.47336714 0.01725555 16.96887207 0.00445557 C18.54830075 0.00577716 20.12772898 0.00833956 21.70715332 0.01226807 C22.45613892 0.0082196 23.20512451 0.00417114 23.97680664 0 C29.25848089 0.04797064 29.25848089 0.04797064 31.48840332 2.27789307 C31.74237061 4.36517334 31.74237061 4.36517334 31.74719238 6.97125244 C31.7534967 7.94566284 31.75980103 8.92007324 31.76629639 9.92401123 C31.76224792 10.97922974 31.75819946 12.03444824 31.75402832 13.12164307 C31.7568985 14.7416925 31.7568985 14.7416925 31.75982666 16.39447021 C31.76118939 18.6809716 31.75748684 20.9674807 31.74914551 23.25396729 C31.73844744 26.76342061 31.74903805 30.272362 31.76184082 33.78179932 C31.76051924 35.99924837 31.75795688 38.2166971 31.75402832 40.43414307 C31.75807678 41.48936157 31.76212524 42.54458008 31.76629639 43.6317749 C31.75999207 44.6061853 31.75368774 45.5805957 31.74719238 46.58453369 C31.7456012 47.44453979 31.74401001 48.3045459 31.74237061 49.19061279 C31.48840332 51.27789307 31.48840332 51.27789307 29.48840332 53.27789307 C26.85900136 53.4775468 24.33720169 53.55773416 21.70715332 53.54351807 C20.93786499 53.54543152 20.16857666 53.54734497 19.37597656 53.54931641 C17.74857252 53.55067815 16.12115762 53.54698246 14.49377441 53.53863525 C11.99824701 53.52793527 9.5034395 53.53853058 7.00793457 53.55133057 C5.42850589 53.55000897 3.84907766 53.54744657 2.26965332 53.54351807 C1.52066772 53.54756653 0.77168213 53.55161499 0 53.55578613 C-5.28167425 53.5078155 -5.28167425 53.5078155 -7.51159668 51.27789307 C-7.76556396 49.19061279 -7.76556396 49.19061279 -7.77038574 46.58453369 C-7.77669006 45.61012329 -7.78299438 44.63571289 -7.78948975 43.6317749 C-7.78544128 42.5765564 -7.78139282 41.52133789 -7.77722168 40.43414307 C-7.77913513 39.35411011 -7.78104858 38.27407715 -7.78302002 37.16131592 C-7.78438275 34.87481453 -7.7806802 32.58830543 -7.77233887 30.30181885 C-7.7616408 26.79236552 -7.77223141 23.28342413 -7.78503418 19.77398682 C-7.7837126 17.55653776 -7.78115024 15.33908903 -7.77722168 13.12164307 C-7.78127014 12.06642456 -7.7853186 11.01120605 -7.78948975 9.92401123 C-7.78318542 8.94960083 -7.7768811 7.97519043 -7.77038574 6.97125244 C-7.76879456 6.11124634 -7.76720337 5.25124023 -7.76556396 4.36517334 C-7.19103344 -0.35671919 -4.00840222 0.03640618 0 0 Z M-4.51159668 3.27789307 C-5.41490715 5.98782447 -5.63788553 7.55263277 -5.64099121 10.33453369 C-5.64414337 11.14547485 -5.64729553 11.95641602 -5.65054321 12.79193115 C-5.64851898 13.66386108 -5.64649475 14.53579102 -5.64440918 15.43414307 C-5.64536591 16.33282104 -5.64632263 17.23149902 -5.64730835 18.15740967 C-5.64798873 20.05710927 -5.64614434 21.95681121 -5.64196777 23.85650635 C-5.63661753 26.76655289 -5.64191757 29.67644508 -5.64831543 32.58648682 C-5.64765462 34.43153924 -5.64637341 36.27659157 -5.64440918 38.12164307 C-5.64643341 38.993573 -5.64845764 39.86550293 -5.65054321 40.76385498 C-5.64739105 41.57479614 -5.64423889 42.3857373 -5.64099121 43.22125244 C-5.64019562 43.93390259 -5.63940002 44.64655273 -5.63858032 45.38079834 C-5.57660657 47.50313438 -5.57660657 47.50313438 -4.51159668 50.27789307 C-1.2521239 51.36438399 1.15351307 51.40717816 4.58215332 51.41070557 C6.37459473 51.41263916 6.37459473 51.41263916 8.20324707 51.41461182 C9.45234863 51.41074463 10.7014502 51.40687744 11.98840332 51.40289307 C13.23750488 51.40676025 14.48660645 51.41062744 15.77355957 51.41461182 C16.96852051 51.41332275 18.16348145 51.41203369 19.39465332 51.41070557 C20.49100098 51.40957764 21.58734863 51.40844971 22.71691895 51.4072876 C25.57618863 51.39954237 25.57618863 51.39954237 28.48840332 50.27789307 C29.39171379 47.56796166 29.61469217 46.00315336 29.61779785 43.22125244 C29.62252609 42.0048407 29.62252609 42.0048407 29.62734985 40.76385498 C29.62532562 39.89192505 29.62330139 39.01999512 29.62121582 38.12164307 C29.62217255 37.22296509 29.62312927 36.32428711 29.62411499 35.39837646 C29.62479537 33.49867686 29.62295098 31.59897492 29.61877441 29.69927979 C29.61342417 26.78923324 29.61872421 23.87934105 29.62512207 20.96929932 C29.62446126 19.12424689 29.62318005 17.27919456 29.62121582 15.43414307 C29.62324005 14.56221313 29.62526428 13.6902832 29.62734985 12.79193115 C29.62419769 11.98098999 29.62104553 11.17004883 29.61779785 10.33453369 C29.61700226 9.62188354 29.61620667 8.9092334 29.61538696 8.17498779 C29.55341321 6.05265176 29.55341321 6.05265176 28.48840332 3.27789307 C25.22893054 2.19140214 22.82329358 2.14860797 19.39465332 2.14508057 C17.60221191 2.14314697 17.60221191 2.14314697 15.77355957 2.14117432 C14.52445801 2.1450415 13.27535645 2.14890869 11.98840332 2.15289307 C10.73930176 2.14902588 9.4902002 2.14515869 8.20324707 2.14117432 C7.00828613 2.14246338 5.8133252 2.14375244 4.58215332 2.14508057 C3.48580566 2.1462085 2.38945801 2.14733643 1.2598877 2.14849854 C-1.59938199 2.15624376 -1.59938199 2.15624376 -4.51159668 3.27789307 Z " fill="#000000" transform="translate(16.5115966796875,5.72210693359375)"/>
<path d="M0 0 C10.23 0 20.46 0 31 0 C31 3.96 31 7.92 31 12 C20.77 12 10.54 12 0 12 C0 8.04 0 4.08 0 0 Z M2 3 C1.95919217 4.99958364 1.95745644 7.00045254 2 9 C4.53446873 10.26723437 6.32226954 10.12941328 9.15625 10.1328125 C10.17847656 10.13410156 11.20070313 10.13539062 12.25390625 10.13671875 C13.86072266 10.13091797 13.86072266 10.13091797 15.5 10.125 C16.57121094 10.12886719 17.64242188 10.13273437 18.74609375 10.13671875 C19.76832031 10.13542969 20.79054688 10.13414063 21.84375 10.1328125 C22.78412109 10.13168457 23.72449219 10.13055664 24.69335938 10.12939453 C27.02769872 10.15132401 27.02769872 10.15132401 29 9 C29.04254356 7.00045254 29.04080783 4.99958364 29 3 C27.25454395 1.25454395 24.83875783 1.8697684 22.46875 1.8671875 C20.78845703 1.86525391 20.78845703 1.86525391 19.07421875 1.86328125 C17.30498047 1.86908203 17.30498047 1.86908203 15.5 1.875 C14.32050781 1.87113281 13.14101563 1.86726562 11.92578125 1.86328125 C10.80558594 1.86457031 9.68539063 1.86585937 8.53125 1.8671875 C6.97760742 1.86887939 6.97760742 1.86887939 5.39257812 1.87060547 C3.04702177 1.73034847 3.04702177 1.73034847 2 3 Z " fill="#000000" transform="translate(13,10)"/>
<path d="M0 0 C0.804375 -0.00128906 1.60875 -0.00257812 2.4375 -0.00390625 C3.283125 -0.00003906 4.12875 0.00382812 5 0.0078125 C6.2684375 0.00201172 6.2684375 0.00201172 7.5625 -0.00390625 C8.366875 -0.00261719 9.17125 -0.00132813 10 0 C10.7425 0.00112793 11.485 0.00225586 12.25 0.00341797 C14 0.1328125 14 0.1328125 15 1.1328125 C15.125 4.6328125 15.125 4.6328125 15 8.1328125 C13.4779041 9.6549084 12.11789918 9.26240771 10 9.265625 C9.195625 9.26691406 8.39125 9.26820312 7.5625 9.26953125 C6.716875 9.26566406 5.87125 9.26179688 5 9.2578125 C4.154375 9.26167969 3.30875 9.26554687 2.4375 9.26953125 C1.633125 9.26824219 0.82875 9.26695313 0 9.265625 C-0.7425 9.26449707 -1.485 9.26336914 -2.25 9.26220703 C-4 9.1328125 -4 9.1328125 -5 8.1328125 C-5.125 4.6328125 -5.125 4.6328125 -5 1.1328125 C-3.4779041 -0.3892834 -2.11789918 0.00321729 0 0 Z M-2 3.1328125 C-2 4.1228125 -2 5.1128125 -2 6.1328125 C0.48754786 7.37658643 2.22655301 7.26587485 5 7.2578125 C6.3303125 7.26167969 6.3303125 7.26167969 7.6875 7.265625 C10.02676966 7.28409152 10.02676966 7.28409152 12 6.1328125 C12 5.1428125 12 4.1528125 12 3.1328125 C9.51245214 1.88903857 7.77344699 1.99975015 5 2.0078125 C3.6696875 2.00394531 3.6696875 2.00394531 2.3125 2 C-0.02676966 1.98153348 -0.02676966 1.98153348 -2 3.1328125 Z " fill="#000000" transform="translate(18,45.8671875)"/>
<path d="M0 0 C3.5 0.125 3.5 0.125 4.5 1.125 C4.625 4.625 4.625 4.625 4.5 8.125 C3.5 9.125 3.5 9.125 0 9.25 C-3.5 9.125 -3.5 9.125 -4.5 8.125 C-4.625 4.625 -4.625 4.625 -4.5 1.125 C-3.5 0.125 -3.5 0.125 0 0 Z M-1.5 3.125 C-1.5 4.115 -1.5 5.105 -1.5 6.125 C-0.51 6.125 0.48 6.125 1.5 6.125 C1.5 5.135 1.5 4.145 1.5 3.125 C0.51 3.125 -0.48 3.125 -1.5 3.125 Z " fill="#000000" transform="translate(39.5,45.875)"/>
<path d="M0 0 C3.5 0.125 3.5 0.125 4.5 1.125 C4.625 4.625 4.625 4.625 4.5 8.125 C3.5 9.125 3.5 9.125 0 9.25 C-3.5 9.125 -3.5 9.125 -4.5 8.125 C-4.625 4.625 -4.625 4.625 -4.5 1.125 C-3.5 0.125 -3.5 0.125 0 0 Z M-1.5 3.125 C-1.5 4.115 -1.5 5.105 -1.5 6.125 C-0.51 6.125 0.48 6.125 1.5 6.125 C1.5 5.135 1.5 4.145 1.5 3.125 C0.51 3.125 -0.48 3.125 -1.5 3.125 Z " fill="#000000" transform="translate(39.5,34.875)"/>
<path d="M0 0 C3.5 0.125 3.5 0.125 4.5 1.125 C4.625 4.625 4.625 4.625 4.5 8.125 C3.5 9.125 3.5 9.125 0 9.25 C-3.5 9.125 -3.5 9.125 -4.5 8.125 C-4.625 4.625 -4.625 4.625 -4.5 1.125 C-3.5 0.125 -3.5 0.125 0 0 Z M-1.5 3.125 C-1.5 4.115 -1.5 5.105 -1.5 6.125 C-0.51 6.125 0.48 6.125 1.5 6.125 C1.5 5.135 1.5 4.145 1.5 3.125 C0.51 3.125 -0.48 3.125 -1.5 3.125 Z " fill="#000000" transform="translate(28.5,34.875)"/>
<path d="M0 0 C3.5 0.125 3.5 0.125 4.5 1.125 C4.625 4.625 4.625 4.625 4.5 8.125 C3.5 9.125 3.5 9.125 0 9.25 C-3.5 9.125 -3.5 9.125 -4.5 8.125 C-4.625 4.625 -4.625 4.625 -4.5 1.125 C-3.5 0.125 -3.5 0.125 0 0 Z M-1.5 3.125 C-1.5 4.115 -1.5 5.105 -1.5 6.125 C-0.51 6.125 0.48 6.125 1.5 6.125 C1.5 5.135 1.5 4.145 1.5 3.125 C0.51 3.125 -0.48 3.125 -1.5 3.125 Z " fill="#000000" transform="translate(17.5,34.875)"/>
<path d="M0 0 C3.5 0.125 3.5 0.125 4.5 1.125 C4.625 4.625 4.625 4.625 4.5 8.125 C3.5 9.125 3.5 9.125 0 9.25 C-3.5 9.125 -3.5 9.125 -4.5 8.125 C-4.625 4.625 -4.625 4.625 -4.5 1.125 C-3.5 0.125 -3.5 0.125 0 0 Z M-1.5 3.125 C-1.5 4.115 -1.5 5.105 -1.5 6.125 C-0.51 6.125 0.48 6.125 1.5 6.125 C1.5 5.135 1.5 4.145 1.5 3.125 C0.51 3.125 -0.48 3.125 -1.5 3.125 Z " fill="#000000" transform="translate(39.5,23.875)"/>
<path d="M0 0 C3.5 0.125 3.5 0.125 4.5 1.125 C4.625 4.625 4.625 4.625 4.5 8.125 C3.5 9.125 3.5 9.125 0 9.25 C-3.5 9.125 -3.5 9.125 -4.5 8.125 C-4.625 4.625 -4.625 4.625 -4.5 1.125 C-3.5 0.125 -3.5 0.125 0 0 Z M-1.5 3.125 C-1.5 4.115 -1.5 5.105 -1.5 6.125 C-0.51 6.125 0.48 6.125 1.5 6.125 C1.5 5.135 1.5 4.145 1.5 3.125 C0.51 3.125 -0.48 3.125 -1.5 3.125 Z " fill="#000000" transform="translate(28.5,23.875)"/>
<path d="M0 0 C3.5 0.125 3.5 0.125 4.5 1.125 C4.625 4.625 4.625 4.625 4.5 8.125 C3.5 9.125 3.5 9.125 0 9.25 C-3.5 9.125 -3.5 9.125 -4.5 8.125 C-4.625 4.625 -4.625 4.625 -4.5 1.125 C-3.5 0.125 -3.5 0.125 0 0 Z M-1.5 3.125 C-1.5 4.115 -1.5 5.105 -1.5 6.125 C-0.51 6.125 0.48 6.125 1.5 6.125 C1.5 5.135 1.5 4.145 1.5 3.125 C0.51 3.125 -0.48 3.125 -1.5 3.125 Z " fill="#000000" transform="translate(17.5,23.875)"/>
<path d="M0 0 C1.32 0 2.64 0 4 0 C4 0.66 4 1.32 4 2 C2.68 2 1.36 2 0 2 C0 1.34 0 0.68 0 0 Z " fill="#000000" transform="translate(51,52)"/>
<path d="M0 0 C1.32 0 2.64 0 4 0 C4 0.66 4 1.32 4 2 C2.68 2 1.36 2 0 2 C0 1.34 0 0.68 0 0 Z " fill="#000000" transform="translate(51,47)"/>
<path d="M0 0 C1.32 0 2.64 0 4 0 C4 0.66 4 1.32 4 2 C2.68 2 1.36 2 0 2 C0 1.34 0 0.68 0 0 Z " fill="#000000" transform="translate(51,42)"/>
<path d="M0 0 C1.32 0 2.64 0 4 0 C4 0.66 4 1.32 4 2 C2.68 2 1.36 2 0 2 C0 1.34 0 0.68 0 0 Z " fill="#000000" transform="translate(51,37)"/>
<path d="M0 0 C1.32 0 2.64 0 4 0 C4 0.66 4 1.32 4 2 C2.68 2 1.36 2 0 2 C0 1.34 0 0.68 0 0 Z " fill="#000000" transform="translate(51,32)"/>
<path d="M0 0 C1.32 0 2.64 0 4 0 C4 0.66 4 1.32 4 2 C2.68 2 1.36 2 0 2 C0 1.34 0 0.68 0 0 Z " fill="#000000" transform="translate(51,27)"/>
<path d="M0 0 C1.32 0 2.64 0 4 0 C4 0.66 4 1.32 4 2 C2.68 2 1.36 2 0 2 C0 1.34 0 0.68 0 0 Z " fill="#000000" transform="translate(51,22)"/>
<path d="M0 0 C1.32 0 2.64 0 4 0 C4 0.66 4 1.32 4 2 C2.68 2 1.36 2 0 2 C0 1.34 0 0.68 0 0 Z " fill="#000000" transform="translate(51,17)"/>
<path d="M0 0 C1.32 0 2.64 0 4 0 C4 0.66 4 1.32 4 2 C2.68 2 1.36 2 0 2 C0 1.34 0 0.68 0 0 Z " fill="#000000" transform="translate(51,12)"/>
</svg>
